<svg version="1.1" id="Layer_1" xmlns="http://www.w3.org/2000/svg" xmlns:xlink="http://www.w3.org/1999/xlink" x="0px" y="0px"
	 width="100%" viewBox="0 0 720 720" enable-background="new 0 0 720 720" xml:space="preserve">
<path fill="#040406" opacity="1.000000" stroke="none" 
	d="
M1.000000,202.000000 
	C1.000000,134.666672 1.000000,67.833336 1.000000,1.000000 
	C241.000000,1.000000 481.000000,1.000000 721.000000,1.000000 
	C721.000000,241.000000 721.000000,481.000000 721.000000,721.000000 
	C481.000000,721.000000 241.000000,721.000000 1.000000,721.000000 
	C1.000000,548.166687 1.000000,375.333344 1.000000,202.000000 
M455.812286,50.294174 
	C453.213745,47.858044 450.615234,45.421913 447.644562,42.443756 
	C444.143829,39.139919 440.927582,35.454338 437.093903,32.597324 
	C419.091309,19.181190 399.277191,9.813258 376.750031,7.130920 
	C368.030945,6.092731 359.252228,5.294273 350.481323,5.029977 
	C342.583008,4.791977 339.180939,10.616906 342.496887,17.671953 
	C342.830597,18.381931 342.855286,19.237165 342.095551,19.924484 
	C329.319183,20.236076 316.774872,21.790331 304.108093,26.933846 
	C279.942902,35.358292 259.724457,50.026657 240.266022,67.123093 
	C237.800964,69.706444 235.335892,72.289803 232.229675,75.090714 
	C223.690002,83.431572 214.855316,91.494324 206.673752,100.172791 
	C190.989105,116.810059 177.858398,135.452469 166.644699,155.300659 
	C158.671005,169.414032 151.990616,184.258072 144.225891,199.216934 
	C136.969986,220.008362 128.849365,240.548645 122.715843,261.666046 
	C117.234711,280.537292 113.219254,299.922058 109.929604,319.313080 
	C107.466965,333.829224 106.342690,348.704437 106.148476,363.439880 
	C105.908112,381.676392 106.961273,399.949463 107.973030,418.178009 
	C109.237549,440.960236 113.718636,463.104370 121.717262,484.581390 
	C130.090302,507.063690 139.528107,528.993896 152.774109,549.071899 
	C160.433701,560.682068 168.593674,571.962158 176.768021,584.033020 
	C182.166840,590.032715 187.565659,596.032471 193.052292,602.564392 
	C193.357361,602.721619 193.662430,602.878845 194.338425,603.578979 
	C207.401230,614.224670 220.464035,624.870422 233.988358,635.981445 
	C249.853424,646.478271 265.718475,656.975098 282.021118,667.958374 
	C300.889771,680.035950 318.858643,693.561584 339.403046,702.924133 
	C363.405762,713.862671 388.061493,720.336182 414.643463,715.034119 
	C429.999847,711.971130 444.798279,707.339172 459.105408,699.213684 
	C482.998230,686.799316 502.387604,669.862427 515.043457,645.555786 
	C530.301880,616.250793 539.697815,585.001404 545.905457,552.829163 
	C550.291565,530.097412 552.761108,506.998383 556.190552,484.078888 
	C559.713379,460.534546 561.028137,436.833466 561.016113,413.069489 
	C561.006470,393.928284 560.731079,374.775330 559.996643,355.649750 
	C559.301453,337.544983 557.922180,319.464630 556.722656,301.381561 
	C555.237366,278.990295 553.766113,256.596405 552.011536,234.225388 
	C551.157166,223.331909 550.547485,212.298676 548.248474,201.670151 
	C545.495667,188.943695 541.570618,176.401093 537.240784,164.100067 
	C528.346069,138.830399 513.631897,116.954231 496.053406,96.104767 
	C485.684479,84.087044 475.315582,72.069328 464.786102,59.397270 
	C461.895172,56.559788 459.004242,53.722309 455.812286,50.294174 
z"/>
<path fill="#50DC99" opacity="1.000000" stroke="none" 
	d="
M496.283356,96.749687 
	C513.631897,116.954231 528.346069,138.830399 537.240784,164.100067 
	C541.570618,176.401093 545.495667,188.943695 548.248474,201.670151 
	C550.547485,212.298676 551.157166,223.331909 552.011536,234.225388 
	C553.766113,256.596405 555.237366,278.990295 556.722656,301.381561 
	C557.922180,319.464630 559.301453,337.544983 559.996643,355.649750 
	C560.731079,374.775330 561.006470,393.928284 561.016113,413.069489 
	C561.028137,436.833466 559.713379,460.534546 556.190552,484.078888 
	C552.761108,506.998383 550.291565,530.097412 545.905457,552.829163 
	C539.697815,585.001404 530.301880,616.250793 515.043457,645.555786 
	C502.387604,669.862427 482.998230,686.799316 458.627411,699.165833 
	C458.149414,699.117981 457.896912,698.860291 458.115234,698.608887 
	C459.802399,697.285889 461.278595,696.224060 462.739014,695.140991 
	C473.246887,687.347839 484.424591,680.295044 494.084747,671.563477 
	C505.815552,660.960144 512.941895,646.819031 519.285339,632.447998 
	C522.503845,625.156616 526.373291,618.051697 528.671387,610.475159 
	C534.029968,592.808411 539.239502,575.049133 543.329346,557.059082 
	C547.029297,540.784241 549.519592,524.204407 551.880676,507.664459 
	C553.851868,493.855591 555.017029,479.923492 556.259766,466.020996 
	C557.664917,450.301788 559.701904,434.559052 559.774048,418.818787 
	C559.892944,392.872437 558.655579,366.919861 557.984863,340.970001 
	C557.907471,337.974762 557.924377,334.970093 557.681885,331.987335 
	C556.510681,317.583252 555.194458,303.190674 554.084961,288.782043 
	C553.689270,283.642944 553.933228,278.454468 553.534302,273.315765 
	C552.466736,259.563965 551.256897,245.822601 550.014709,232.085129 
	C548.521729,215.574997 547.427734,199.128693 542.308044,183.033661 
	C535.694275,162.241409 526.941040,142.633911 514.983093,124.467644 
	C508.874146,115.187057 502.228485,106.259766 495.939758,97.066879 
	C496.054138,96.960968 496.283356,96.749687 496.283356,96.749687 
z"/>
<path fill="#50DC99" opacity="1.000000" stroke="none" 
	d="
M176.528442,583.390808 
	C168.593674,571.962158 160.433701,560.682068 152.774109,549.071899 
	C139.528107,528.993896 130.090302,507.063690 121.717262,484.581390 
	C113.718636,463.104370 109.237549,440.960236 107.973030,418.178009 
	C106.961273,399.949463 105.908112,381.676392 106.148476,363.439880 
	C106.342690,348.704437 107.466965,333.829224 109.929604,319.313080 
	C113.219254,299.922058 117.234711,280.537292 122.715843,261.666046 
	C128.849365,240.548645 136.969986,220.008362 144.593506,199.084167 
	C144.961136,198.951385 145.189011,199.127045 145.137665,199.510315 
	C144.685699,201.330444 144.353867,202.790710 143.874100,204.200653 
	C136.926376,224.618362 129.052094,244.775955 123.257141,265.514832 
	C117.727402,285.304596 113.279205,305.543549 110.365532,325.873108 
	C107.804832,343.739777 107.313911,362.001495 107.220085,380.095551 
	C107.126297,398.182587 107.873901,416.325500 111.646255,434.189453 
	C114.040192,445.525879 114.978928,457.232025 118.116142,468.335571 
	C123.912621,488.851044 132.185745,508.535461 142.258774,527.325562 
	C148.515427,538.996704 155.812653,550.119629 162.846893,561.360901 
	C167.411789,568.656006 172.344559,575.720886 176.966553,583.014526 
	C176.820602,583.140076 176.528442,583.390808 176.528442,583.390808 
z"/>
<path fill="#50DC99" opacity="1.000000" stroke="none" 
	d="
M458.276001,699.246582 
	C444.798279,707.339172 429.999847,711.971130 414.643463,715.034119 
	C388.061493,720.336182 363.405762,713.862671 339.403046,702.924133 
	C318.858643,693.561584 300.889771,680.035950 281.931458,667.562256 
	C281.841827,667.166138 282.099152,666.859680 282.449554,666.924316 
	C290.391296,671.718445 297.973236,676.463074 305.576263,681.173767 
	C315.735046,687.467957 325.436646,694.749023 336.190430,699.775085 
	C351.942749,707.137329 368.390259,712.890564 385.974915,714.861267 
	C397.371979,716.138489 408.578644,715.502625 419.380737,712.301941 
	C432.403687,708.443176 445.073975,703.394104 457.896912,698.860291 
	C457.896912,698.860291 458.149414,699.117981 458.276001,699.246582 
z"/>
<path fill="#50DC99" opacity="1.000000" stroke="none" 
	d="
M144.847076,198.863708 
	C151.990616,184.258072 158.671005,169.414032 166.644699,155.300659 
	C177.858398,135.452469 190.989105,116.810059 206.673752,100.172791 
	C214.855316,91.494324 223.690002,83.431572 232.638779,75.069901 
	C233.047882,75.049088 233.224945,75.225014 233.084412,75.526154 
	C231.273514,77.662697 229.692001,79.589447 227.916260,81.316490 
	C222.439774,86.642738 216.352676,91.443672 211.479126,97.265915 
	C201.365921,109.347748 191.093292,121.427933 182.346100,134.486679 
	C172.295883,149.490707 163.754517,165.511902 154.705063,181.176361 
	C151.319580,187.036591 148.348846,193.136444 145.188995,199.127045 
	C145.189011,199.127045 144.961136,198.951385 144.847076,198.863708 
z"/>
<path fill="#50DC99" opacity="1.000000" stroke="none" 
	d="
M343.023376,20.024996 
	C342.855286,19.237165 342.830597,18.381931 342.496887,17.671953 
	C339.180939,10.616906 342.583008,4.791977 350.481323,5.029977 
	C359.252228,5.294273 368.030945,6.092731 376.750031,7.130920 
	C399.277191,9.813258 419.091309,19.181190 437.093903,32.597324 
	C440.927582,35.454338 444.143829,39.139919 447.748413,42.803295 
	C447.852234,43.162834 447.688141,43.340237 447.363525,43.234272 
	C445.555573,42.105469 444.016510,41.154003 442.598755,40.047153 
	C437.133942,35.780796 431.956696,31.095503 426.223328,27.232687 
	C404.161102,12.368423 378.992035,7.840537 353.112732,6.139111 
	C345.810211,5.659009 342.749603,9.866952 344.237335,16.885662 
	C344.444336,17.862337 343.548676,19.072737 343.128418,20.137465 
	C343.093353,20.099989 343.023346,20.024998 343.023376,20.024996 
z"/>
<path fill="#50DC99" opacity="1.000000" stroke="none" 
	d="
M240.894104,66.891060 
	C259.724457,50.026657 279.942902,35.358292 304.569519,27.000065 
	C305.030914,27.066282 305.172150,27.260458 304.911438,27.482983 
	C304.241150,27.987726 303.865448,28.349329 303.417114,28.540724 
	C285.631073,36.133320 269.119720,45.825024 254.108276,58.074715 
	C250.035538,61.398170 245.573700,64.244774 241.191376,67.205421 
	C241.092316,67.100609 240.894104,66.891060 240.894104,66.891060 
z"/>
<path fill="#50DC99" opacity="1.000000" stroke="none" 
	d="
M281.712708,667.319031 
	C265.718475,656.975098 249.853424,646.478271 233.887756,635.604492 
	C233.787155,635.227539 234.046143,634.937744 234.388260,635.029907 
	C236.086365,635.744263 237.550079,636.202942 238.781250,637.014526 
	C248.321487,643.303040 257.869720,649.582336 267.304779,656.026489 
	C272.349335,659.471924 277.174805,663.238159 282.099182,666.859680 
	C282.099152,666.859680 281.841827,667.166138 281.712708,667.319031 
z"/>
<path fill="#50DC99" opacity="1.000000" stroke="none" 
	d="
M233.656998,635.371826 
	C220.464035,624.870422 207.401230,614.224670 194.208191,603.229858 
	C194.077957,602.880676 194.184891,602.722839 194.524323,602.809814 
	C196.239517,603.786133 197.722183,604.546753 198.973755,605.585815 
	C207.403320,612.583618 215.783478,619.640869 224.180542,626.677734 
	C227.467865,629.432556 230.757538,632.184509 234.046143,634.937744 
	C234.046143,634.937744 233.787155,635.227539 233.656998,635.371826 
z"/>
<path fill="#50DC99" opacity="1.000000" stroke="none" 
	d="
M464.946655,60.051613 
	C475.315582,72.069328 485.684479,84.087044 496.168396,96.427231 
	C496.283356,96.749687 496.054138,96.960968 495.636963,96.931274 
	C489.038849,89.757759 482.784363,82.675865 476.702576,75.448616 
	C472.557220,70.522545 468.653259,65.393280 464.717834,60.279213 
	C464.794312,60.203560 464.946655,60.051617 464.946655,60.051613 
z"/>
<path fill="#50DC99" opacity="1.000000" stroke="none" 
	d="
M304.960114,26.969318 
	C316.774872,21.790331 329.319183,20.236076 342.559448,19.974741 
	C343.023346,20.024998 343.093353,20.099989 342.910461,20.458939 
	C341.843079,21.186214 340.985809,21.773111 340.069641,21.887300 
	C334.240295,22.613848 328.370361,23.055548 322.567688,23.943401 
	C316.736511,24.835621 310.968079,26.137884 305.172150,27.260456 
	C305.172150,27.260458 305.030914,27.066282 304.960114,26.969318 
z"/>
<path fill="#50DC99" opacity="1.000000" stroke="none" 
	d="
M192.964478,602.032166 
	C187.565659,596.032471 182.166840,590.032715 176.648224,583.711914 
	C176.528442,583.390808 176.820602,583.140076 177.279602,583.134888 
	C179.541061,584.991455 181.490555,586.734192 183.115646,588.739746 
	C186.590439,593.028076 189.897385,597.452515 193.195282,601.872925 
	C193.117477,601.924744 192.964478,602.032166 192.964478,602.032166 
z"/>
<path fill="#50DC99" opacity="1.000000" stroke="none" 
	d="
M456.113312,50.884827 
	C459.004242,53.722309 461.895172,56.559788 464.866394,59.724442 
	C464.946655,60.051617 464.794312,60.203560 464.399414,60.162155 
	C461.242645,57.174767 458.480774,54.228779 455.817566,51.183327 
	C455.916199,51.083862 456.113312,50.884819 456.113312,50.884827 
z"/>
<path fill="#50DC99" opacity="1.000000" stroke="none" 
	d="
M447.934448,43.074306 
	C450.615234,45.421913 453.213745,47.858044 455.962799,50.589497 
	C456.113312,50.884819 455.916199,51.083862 455.510742,51.040146 
	C452.632874,48.444370 450.160492,45.892307 447.688141,43.340240 
	C447.688141,43.340237 447.852234,43.162834 447.934448,43.074306 
z"/>
<path fill="#50DC99" opacity="1.000000" stroke="none" 
	d="
M232.959351,74.961121 
	C235.335892,72.289803 237.800964,69.706444 240.580063,67.007080 
	C240.894104,66.891060 241.092316,67.100609 241.033417,67.492355 
	C238.391342,70.331070 235.808136,72.778038 233.224945,75.225014 
	C233.224945,75.225014 233.047882,75.049088 232.959351,74.961121 
z"/>
<path fill="#50DC99" opacity="1.000000" stroke="none" 
	d="
M194.022720,602.958374 
	C193.662430,602.878845 193.357361,602.721619 193.008392,602.298279 
	C192.964478,602.032166 193.117477,601.924744 193.347092,602.022949 
	C193.780106,602.321045 193.982834,602.521606 194.184891,602.722839 
	C194.184891,602.722839 194.077957,602.880676 194.022720,602.958374 
z"/>
<path fill="#36F89B" opacity="1.000000" stroke="none" 
	d="
M194.524323,602.809814 
	C193.982834,602.521606 193.780106,602.321045 193.424896,601.971191 
	C189.897385,597.452515 186.590439,593.028076 183.115646,588.739746 
	C181.490555,586.734192 179.541061,584.991455 177.425552,583.009277 
	C172.344559,575.720886 167.411789,568.656006 162.846893,561.360901 
	C155.812653,550.119629 148.515427,538.996704 142.258774,527.325562 
	C132.185745,508.535461 123.912621,488.851044 118.116142,468.335571 
	C114.978928,457.232025 114.040192,445.525879 111.646255,434.189453 
	C107.873901,416.325500 107.126297,398.182587 107.220085,380.095551 
	C107.313911,362.001495 107.804832,343.739777 110.365532,325.873108 
	C113.279205,305.543549 117.727402,285.304596 123.257141,265.514832 
	C129.052094,244.775955 136.926376,224.618362 143.874100,204.200653 
	C144.353867,202.790710 144.685699,201.330444 145.137665,199.510315 
	C148.348846,193.136444 151.319580,187.036591 154.705063,181.176361 
	C163.754517,165.511902 172.295883,149.490707 182.346100,134.486679 
	C191.093292,121.427933 201.365921,109.347748 211.479126,97.265915 
	C216.352676,91.443672 222.439774,86.642738 227.916260,81.316490 
	C229.692001,79.589447 231.273514,77.662697 233.084412,75.526154 
	C235.808136,72.778038 238.391342,70.331070 241.132477,67.597168 
	C245.573700,64.244774 250.035538,61.398170 254.108276,58.074715 
	C269.119720,45.825024 285.631073,36.133320 303.417114,28.540724 
	C303.865448,28.349329 304.241150,27.987726 304.911438,27.482981 
	C310.968079,26.137884 316.736511,24.835621 322.567688,23.943401 
	C328.370361,23.055548 334.240295,22.613848 340.069641,21.887300 
	C340.985809,21.773111 341.843079,21.186214 342.945526,20.496414 
	C343.548676,19.072737 344.444336,17.862337 344.237335,16.885662 
	C342.749603,9.866952 345.810211,5.659009 353.112732,6.139111 
	C378.992035,7.840537 404.161102,12.368423 426.223328,27.232687 
	C431.956696,31.095503 437.133942,35.780796 442.598755,40.047153 
	C444.016510,41.154003 445.555573,42.105469 447.363525,43.234276 
	C450.160492,45.892307 452.632874,48.444370 455.412109,51.139610 
	C458.480774,54.228779 461.242645,57.174767 464.322937,60.237808 
	C468.653259,65.393280 472.557220,70.522545 476.702576,75.448616 
	C482.784363,82.675865 489.038849,89.757759 495.522583,97.037186 
	C502.228485,106.259766 508.874146,115.187057 514.983093,124.467644 
	C526.941040,142.633911 535.694275,162.241409 542.308044,183.033661 
	C547.427734,199.128693 548.521729,215.574997 550.014709,232.085129 
	C551.256897,245.822601 552.466736,259.563965 553.534302,273.315765 
	C553.933228,278.454468 553.689270,283.642944 554.084961,288.782043 
	C555.194458,303.190674 556.510681,317.583252 557.681885,331.987335 
	C557.924377,334.970093 557.907471,337.974762 557.984863,340.970001 
	C558.655579,366.919861 559.892944,392.872437 559.774048,418.818787 
	C559.701904,434.559052 557.664917,450.301788 556.259766,466.020996 
	C555.017029,479.923492 553.851868,493.855591 551.880676,507.664459 
	C549.519592,524.204407 547.029297,540.784241 543.329346,557.059082 
	C539.239502,575.049133 534.029968,592.808411 528.671387,610.475159 
	C526.373291,618.051697 522.503845,625.156616 519.285339,632.447998 
	C512.941895,646.819031 505.815552,660.960144 494.084747,671.563477 
	C484.424591,680.295044 473.246887,687.347839 462.739014,695.140991 
	C461.278595,696.224060 459.802399,697.285889 458.115234,698.608887 
	C445.073975,703.394104 432.403687,708.443176 419.380737,712.301941 
	C408.578644,715.502625 397.371979,716.138489 385.974915,714.861267 
	C368.390259,712.890564 351.942749,707.137329 336.190430,699.775085 
	C325.436646,694.749023 315.735046,687.467957 305.576263,681.173767 
	C297.973236,676.463074 290.391296,671.718445 282.449585,666.924316 
	C277.174805,663.238159 272.349335,659.471924 267.304779,656.026489 
	C257.869720,649.582336 248.321487,643.303040 238.781250,637.014526 
	C237.550079,636.202942 236.086365,635.744263 234.388275,635.029907 
	C230.757538,632.184509 227.467865,629.432556 224.180542,626.677734 
	C215.783478,619.640869 207.403320,612.583618 198.973755,605.585815 
	C197.722183,604.546753 196.239517,603.786133 194.524323,602.809814 
M272.675934,59.231884 
	C272.395905,59.409367 272.162476,59.635040 271.604004,60.054871 
	C271.604004,60.054871 271.205170,60.073044 270.460663,60.075272 
	C269.673279,60.305588 268.699005,60.314606 268.125946,60.798645 
	C254.490311,72.315819 240.856766,83.836670 227.369186,95.525726 
	C226.189819,96.547829 226.020660,98.735596 225.341782,100.290123 
	C225.341782,100.290123 225.435928,100.324821 224.756943,100.467766 
	C217.266754,108.707726 209.746857,116.921204 202.337433,125.233162 
	C201.677673,125.973289 201.736053,127.353561 201.348251,128.310852 
	C201.348251,128.310852 201.499573,128.385590 200.802933,128.500702 
	C199.504318,129.736511 197.913956,130.780258 196.953796,132.238861 
	C190.023743,142.766708 182.824371,153.147354 176.487091,164.027084 
	C169.811646,175.487335 163.071381,187.066467 158.020233,199.280487 
	C149.919296,218.869141 142.610626,238.836533 136.062668,258.999634 
	C131.098511,274.285767 127.794258,290.114441 123.907753,305.740601 
	C123.585045,307.038086 124.458496,308.633087 124.857986,310.817230 
	C124.717972,311.529083 124.577957,312.240906 123.819542,313.230011 
	C123.166626,314.688873 122.123596,316.096375 121.923584,317.614929 
	C120.537590,328.137939 118.469353,338.663330 118.214211,349.226471 
	C117.297569,387.177032 118.500008,424.888702 127.681564,462.163727 
	C134.953918,491.687836 147.768204,518.384216 163.561859,543.963013 
	C166.530045,548.770142 169.353806,553.712524 172.780518,558.181213 
	C180.340576,568.040161 188.004227,577.842590 196.117126,587.243835 
	C199.570343,591.245361 204.255432,594.183777 208.048157,597.979187 
	C208.162689,597.857727 208.277222,597.736267 208.347809,598.329651 
	C211.793976,604.776794 217.410049,608.521179 224.024429,610.993103 
	C224.024429,610.993103 224.023605,610.929871 224.139862,611.615417 
	C224.683273,612.423889 225.059448,613.455872 225.795593,614.006836 
	C234.770645,620.725220 243.763367,627.421753 252.859619,633.973877 
	C253.939987,634.752197 255.660873,634.641235 257.021210,634.974304 
	C257.021210,634.974304 257.044586,634.907104 257.152557,635.599121 
	C261.857117,639.350525 266.416901,643.307007 271.324951,646.770020 
	C273.928558,648.607117 277.136566,649.587646 280.029175,651.002625 
	C280.029175,651.002625 280.035431,650.938965 280.172821,651.610901 
	C282.401123,653.535889 284.426056,655.784607 286.890991,657.332764 
	C301.799652,666.696228 316.742279,676.009644 331.803864,685.124512 
	C345.878021,693.641785 361.261963,698.727539 377.293823,702.204956 
	C390.603607,705.091980 403.875183,704.712769 416.876709,701.523193 
	C426.157379,699.246399 435.021271,695.270691 444.413727,691.654724 
	C444.561249,691.338806 444.708740,691.022888 444.839325,690.801880 
	C444.839325,690.801880 444.745789,690.778870 445.541656,690.861877 
	C455.923279,688.594849 463.993683,682.061279 472.236145,676.014648 
	C475.575378,673.564880 478.073792,669.968872 480.967621,666.961243 
	C480.967621,666.961243 480.899658,666.959778 481.610535,666.871399 
	C484.996033,664.017517 489.000977,661.646912 491.665680,658.230774 
	C508.007477,637.280823 517.483704,612.915894 524.321106,587.663574 
	C530.045288,566.522644 534.648804,545.008118 538.406372,523.425354 
	C541.877136,503.489807 543.798584,483.268738 545.946838,463.124847 
	C547.176331,451.596863 547.685547,439.980103 548.183105,428.388885 
	C548.910034,411.454041 550.340820,394.465393 549.655518,377.573364 
	C548.599365,351.537537 545.644348,325.584595 544.163513,299.558472 
	C542.655762,273.060944 542.091675,246.541428 538.266418,220.179611 
	C536.190247,205.871368 534.001526,191.836624 529.504211,177.954239 
	C522.634644,156.749374 510.906219,138.367111 499.054077,119.946129 
	C497.580292,117.655548 494.765167,116.227966 492.991455,114.006409 
	C492.852081,114.137344 492.712677,114.268280 492.727386,113.645378 
	C490.279663,109.828079 488.200653,105.697021 485.288544,102.274879 
	C481.844574,98.227684 477.681366,94.792503 473.938660,91.068596 
	C473.938660,91.068596 473.959900,91.177742 473.694489,90.711082 
	C473.424530,90.480095 473.154602,90.249107 472.961548,90.045433 
	C472.961548,90.045433 472.932953,90.121857 472.938995,89.381653 
	C471.748688,87.239670 470.927032,84.754448 469.306091,83.013435 
	C461.053497,74.149605 452.634705,65.438927 444.198151,56.748344 
	C429.179657,41.277645 412.130615,28.936760 391.087799,22.955576 
	C388.481140,22.214657 385.659821,22.229025 382.280823,21.864170 
	C381.843201,21.828665 381.405548,21.793159 380.789520,21.316103 
	C379.906525,21.549082 379.023529,21.782061 378.471649,22.597332 
	C379.546143,23.617785 381.099243,24.447353 381.597870,25.697498 
	C382.717438,28.504488 384.825134,32.496620 383.727600,34.196003 
	C382.448792,36.176079 378.069946,37.242214 375.228241,36.934242 
	C363.617065,35.675896 352.091431,33.644032 340.497955,32.185814 
	C339.120575,32.012566 337.520081,33.613243 335.424500,34.691410 
	C334.982056,34.702560 334.539612,34.713715 333.736664,34.163490 
	C333.147980,33.910442 332.536926,33.394768 331.973877,33.442753 
	C317.677826,34.661072 304.412872,39.322041 291.733124,45.787594 
	C290.572021,46.379662 289.909363,47.949341 289.002747,49.005589 
	C289.002747,49.005589 289.061798,49.020077 288.289520,48.994656 
	C283.210754,52.367493 278.131989,55.740330 273.045990,59.036861 
	C273.045990,59.036861 273.122437,59.031052 272.675934,59.231884 
z"/>
<path fill="#040506" opacity="1.000000" stroke="none" 
	d="
M334.097168,34.724869 
	C334.539612,34.713715 334.982056,34.702560 336.129578,34.542850 
	C349.749878,33.795254 362.545044,33.833172 374.853210,38.857182 
	C380.788239,41.279785 386.644928,37.709225 386.454803,31.655174 
	C386.360992,28.668037 384.200531,25.745802 383.352539,22.907303 
	C403.055145,27.043499 419.952301,35.964626 433.986389,49.654015 
	C447.381409,62.720055 459.982727,76.599808 472.932953,90.121857 
	C472.932953,90.121857 472.961548,90.045433 472.970734,90.323029 
	C473.306580,90.792992 473.633240,90.985367 473.959900,91.177734 
	C473.959900,91.177742 473.938660,91.068596 474.012573,91.399445 
	C480.248749,99.286598 486.411011,106.842911 492.573273,114.399223 
	C492.712677,114.268280 492.852081,114.137344 492.898804,114.521660 
	C510.962189,139.304520 526.412659,165.029999 532.512756,195.142059 
	C535.531433,210.043076 537.171448,225.250153 538.875366,240.381821 
	C540.120483,251.439255 540.419312,262.601868 541.197571,273.713562 
	C542.416382,291.114502 543.792053,308.505188 544.897339,325.913177 
	C545.814148,340.353333 546.804565,354.804657 547.098938,369.264557 
	C547.488525,388.395508 547.659058,407.551788 547.113770,426.674103 
	C546.692993,441.430115 545.249390,456.171906 543.849792,470.880951 
	C542.405212,486.062744 541.170044,501.320007 538.561279,516.321350 
	C535.328613,534.910461 531.045471,553.333191 526.732178,571.714233 
	C520.475037,598.379395 511.634277,624.158508 496.947754,647.468262 
	C492.497284,654.531799 486.297943,660.493408 480.899658,666.959778 
	C480.899658,666.959778 480.967621,666.961243 480.645660,667.055908 
	C469.855835,677.121887 457.404846,684.106995 444.745789,690.778870 
	C444.745789,690.778870 444.839325,690.801880 444.491272,690.783508 
	C443.540649,691.110840 442.938110,691.456543 441.979828,691.856201 
	C440.382294,692.389465 439.142181,692.873108 437.898468,693.347351 
	C417.554474,701.104858 396.965576,705.048645 375.073456,700.141479 
	C355.281677,695.704956 337.587067,686.737183 320.380035,676.697876 
	C306.609650,668.663757 293.460388,659.565125 280.035431,650.938965 
	C280.035431,650.938965 280.029175,651.002625 279.857727,650.712524 
	C272.139038,645.250671 264.591827,640.078857 257.044586,634.907104 
	C257.044586,634.907104 257.021210,634.974304 256.925690,634.650635 
	C245.894653,626.527954 234.959122,618.728882 224.023605,610.929871 
	C224.023605,610.929871 224.024429,610.993103 223.855316,610.704712 
	C218.588043,606.149231 213.489899,601.882019 208.391754,597.614807 
	C208.277222,597.736267 208.162689,597.857727 208.064178,597.498413 
	C197.757721,584.909668 186.548782,573.433655 177.347183,560.526611 
	C166.901413,545.874451 157.490799,530.349182 148.990601,514.474976 
	C134.369659,487.170380 126.159088,457.642548 123.093155,426.886902 
	C121.188965,407.785187 119.656456,388.527679 119.897491,369.364532 
	C120.134209,350.544525 122.824440,331.755432 124.437950,312.952759 
	C124.577957,312.240906 124.717972,311.529083 124.928711,310.055206 
	C129.194351,285.940735 135.063034,263.043182 143.755173,240.929031 
	C150.064301,224.877609 155.961746,208.637772 162.965103,192.892181 
	C173.196228,169.889618 186.934799,148.862518 201.499573,128.385590 
	C201.499573,128.385590 201.348251,128.310852 201.686798,128.202866 
	C204.432404,125.122139 206.783722,122.102104 209.257980,119.186378 
	C214.617249,112.870872 220.039459,106.608765 225.435928,100.324814 
	C225.435928,100.324821 225.341782,100.290123 225.645065,100.157669 
	C234.954453,91.762939 243.868622,83.397316 252.999557,75.275406 
	C258.903961,70.023445 265.125671,65.128166 271.205170,60.073044 
	C271.205170,60.073044 271.604004,60.054871 271.954834,60.059883 
	C272.577911,59.720280 272.850159,59.375664 273.122437,59.031052 
	C273.122437,59.031052 273.045990,59.036861 273.393494,58.992805 
	C278.847931,55.639198 283.954865,52.329643 289.061798,49.020081 
	C289.061798,49.020077 289.002747,49.005589 289.362488,48.946655 
	C303.617371,41.357922 318.270691,36.203522 334.097168,34.724869 
M362.319946,154.929550 
	C348.901672,155.934219 335.487885,157.004272 322.063782,157.923752 
	C310.456390,158.718781 298.829865,159.241165 287.226715,160.088287 
	C281.953857,160.473236 276.630188,160.968491 271.492737,162.133408 
	C267.728668,162.986923 264.542664,166.016098 265.173767,169.992859 
	C265.682556,173.198914 267.801697,176.623978 270.191071,178.932770 
	C272.961243,181.609451 276.702789,181.528320 280.386963,179.431290 
	C283.547302,177.632416 286.975403,176.077576 290.480804,175.173599 
	C294.143036,174.229202 298.029999,174.077591 301.834320,173.776627 
	C318.062439,172.492767 334.292633,171.231018 350.529602,170.065857 
	C358.657562,169.482620 366.796539,168.893280 374.939514,168.715103 
	C389.083282,168.405624 403.233856,168.377686 417.381927,168.332611 
	C419.145752,168.326996 420.911560,168.934525 422.366302,169.201111 
	C421.658844,181.394226 420.553436,193.127426 420.380920,204.874313 
	C419.963348,233.315277 419.826324,261.762939 419.882416,290.207306 
	C419.914246,306.345398 420.545563,322.482391 420.914307,338.619690 
	C421.378418,358.930908 422.009766,379.239868 422.278534,399.553619 
	C422.623932,425.658600 422.475372,451.734894 416.929321,477.467529 
	C413.757904,492.182434 410.061279,506.667023 400.889496,518.963440 
	C394.969086,526.900818 387.559601,532.647705 377.182129,534.052917 
	C361.902710,536.121887 350.288849,529.088684 340.213593,519.157837 
	C323.862732,503.041351 315.037567,482.212189 306.127655,461.600433 
	C301.654358,451.252014 298.052307,440.529907 293.891235,430.042267 
	C291.928009,425.094147 287.529755,423.169922 283.033905,424.882782 
	C278.906464,426.455261 277.081055,430.835907 278.654083,435.656219 
	C279.271484,437.548004 279.998688,439.426971 280.894745,441.201202 
	C291.744659,462.685181 302.408539,484.267609 313.591736,505.577271 
	C321.679688,520.988892 332.791260,533.915894 348.053162,542.773499 
	C360.386200,549.931152 373.533295,552.521545 387.272156,547.676636 
	C407.947296,540.385742 418.859375,524.257874 425.033020,504.264130 
	C431.674744,482.754456 435.309540,460.727539 435.262756,438.189056 
	C435.200928,408.389984 435.185150,378.586304 434.626190,348.794434 
	C434.283325,330.520966 432.466095,312.272766 432.209656,294.000610 
	C431.919922,273.357971 432.584625,252.700363 432.931763,232.050903 
	C433.292358,210.601379 434.218628,189.203094 439.327942,168.219955 
	C441.285278,160.181488 437.503815,154.262421 429.416656,153.100189 
	C424.507202,152.394638 419.481201,151.887100 414.543243,152.103668 
	C397.443024,152.853729 380.358429,153.959961 362.319946,154.929550 
z"/>
<path fill="#51DE9A" opacity="1.000000" stroke="none" 
	d="
M481.255096,666.915588 
	C486.297943,660.493408 492.497284,654.531799 496.947754,647.468262 
	C511.634277,624.158508 520.475037,598.379395 526.732178,571.714233 
	C531.045471,553.333191 535.328613,534.910461 538.561279,516.321350 
	C541.170044,501.320007 542.405212,486.062744 543.849792,470.880951 
	C545.249390,456.171906 546.692993,441.430115 547.113770,426.674103 
	C547.659058,407.551788 547.488525,388.395508 547.098938,369.264557 
	C546.804565,354.804657 545.814148,340.353333 544.897339,325.913177 
	C543.792053,308.505188 542.416382,291.114502 541.197571,273.713562 
	C540.419312,262.601868 540.120483,251.439255 538.875366,240.381821 
	C537.171448,225.250153 535.531433,210.043076 532.512756,195.142059 
	C526.412659,165.029999 510.962189,139.304520 492.688843,114.718704 
	C494.765167,116.227966 497.580292,117.655548 499.054077,119.946129 
	C510.906219,138.367111 522.634644,156.749374 529.504211,177.954239 
	C534.001526,191.836624 536.190247,205.871368 538.266418,220.179611 
	C542.091675,246.541428 542.655762,273.060944 544.163513,299.558472 
	C545.644348,325.584595 548.599365,351.537537 549.655518,377.573364 
	C550.340820,394.465393 548.910034,411.454041 548.183105,428.388885 
	C547.685547,439.980103 547.176331,451.596863 545.946838,463.124847 
	C543.798584,483.268738 541.877136,503.489807 538.406372,523.425354 
	C534.648804,545.008118 530.045288,566.522644 524.321106,587.663574 
	C517.483704,612.915894 508.007477,637.280823 491.665680,658.230774 
	C489.000977,661.646912 484.996033,664.017517 481.255096,666.915588 
z"/>
<path fill="#50DC99" opacity="1.000000" stroke="none" 
	d="
M124.128754,313.091370 
	C122.824440,331.755432 120.134209,350.544525 119.897491,369.364532 
	C119.656456,388.527679 121.188965,407.785187 123.093155,426.886902 
	C126.159088,457.642548 134.369659,487.170380 148.990601,514.474976 
	C157.490799,530.349182 166.901413,545.874451 177.347183,560.526611 
	C186.548782,573.433655 197.757721,584.909668 208.230453,597.311462 
	C204.255432,594.183777 199.570343,591.245361 196.117126,587.243835 
	C188.004227,577.842590 180.340576,568.040161 172.780518,558.181213 
	C169.353806,553.712524 166.530045,548.770142 163.561859,543.963013 
	C147.768204,518.384216 134.953918,491.687836 127.681564,462.163727 
	C118.500008,424.888702 117.297569,387.177032 118.214211,349.226471 
	C118.469353,338.663330 120.537590,328.137939 121.923584,317.614929 
	C122.123596,316.096375 123.166626,314.688873 124.128754,313.091370 
z"/>
<path fill="#50DC99" opacity="1.000000" stroke="none" 
	d="
M201.151245,128.443146 
	C186.934799,148.862518 173.196228,169.889618 162.965103,192.892181 
	C155.961746,208.637772 150.064301,224.877609 143.755173,240.929031 
	C135.063034,263.043182 129.194351,285.940735 124.887802,309.691528 
	C124.458496,308.633087 123.585045,307.038086 123.907753,305.740601 
	C127.794258,290.114441 131.098511,274.285767 136.062668,258.999634 
	C142.610626,238.836533 149.919296,218.869141 158.020233,199.280487 
	C163.071381,187.066467 169.811646,175.487335 176.487091,164.027084 
	C182.824371,153.147354 190.023743,142.766708 196.953796,132.238861 
	C197.913956,130.780258 199.504318,129.736511 201.151245,128.443146 
z"/>
<path fill="#50DC99" opacity="1.000000" stroke="none" 
	d="
M280.104126,651.274902 
	C293.460388,659.565125 306.609650,668.663757 320.380035,676.697876 
	C337.587067,686.737183 355.281677,695.704956 375.073456,700.141479 
	C396.965576,705.048645 417.554474,701.104858 437.898468,693.347351 
	C439.142181,692.873108 440.382294,692.389465 442.414001,691.918701 
	C443.493011,691.969116 443.782074,692.011108 444.071136,692.053101 
	C435.021271,695.270691 426.157379,699.246399 416.876709,701.523193 
	C403.875183,704.712769 390.603607,705.091980 377.293823,702.204956 
	C361.261963,698.727539 345.878021,693.641785 331.803864,685.124512 
	C316.742279,676.009644 301.799652,666.696228 286.890991,657.332764 
	C284.426056,655.784607 282.401123,653.535889 280.104126,651.274902 
z"/>
<path fill="#51DE9A" opacity="1.000000" stroke="none" 
	d="
M472.935974,89.751755 
	C459.982727,76.599808 447.381409,62.720055 433.986389,49.654015 
	C419.952301,35.964626 403.055145,27.043499 383.346252,22.681965 
	C382.962708,22.343523 382.937958,21.893406 382.937958,21.893406 
	C385.659821,22.229025 388.481140,22.214657 391.087799,22.955576 
	C412.130615,28.936760 429.179657,41.277645 444.198151,56.748344 
	C452.634705,65.438927 461.053497,74.149605 469.306091,83.013435 
	C470.927032,84.754448 471.748688,87.239670 472.935974,89.751755 
z"/>
<path fill="#50DC99" opacity="1.000000" stroke="none" 
	d="
M382.609375,21.878788 
	C382.937958,21.893406 382.962708,22.343523 382.968964,22.568861 
	C384.200531,25.745802 386.360992,28.668037 386.454803,31.655174 
	C386.644928,37.709225 380.788239,41.279785 374.853210,38.857182 
	C362.545044,33.833172 349.749878,33.795254 336.428833,34.392967 
	C337.520081,33.613243 339.120575,32.012566 340.497955,32.185814 
	C352.091431,33.644032 363.617065,35.675896 375.228241,36.934242 
	C378.069946,37.242214 382.448792,36.176079 383.727600,34.196003 
	C384.825134,32.496620 382.717438,28.504488 381.597870,25.697498 
	C381.099243,24.447353 379.546143,23.617785 378.657776,22.291428 
	C379.551880,21.909567 380.259918,21.833611 380.967926,21.757652 
	C381.405548,21.793159 381.843201,21.828665 382.609375,21.878788 
z"/>
<path fill="#50DC99" opacity="1.000000" stroke="none" 
	d="
M270.832916,60.074158 
	C265.125671,65.128166 258.903961,70.023445 252.999557,75.275406 
	C243.868622,83.397316 234.954453,91.762939 225.665314,100.203568 
	C226.020660,98.735596 226.189819,96.547829 227.369186,95.525726 
	C240.856766,83.836670 254.490311,72.315819 268.125946,60.798645 
	C268.699005,60.314606 269.673279,60.305588 270.832916,60.074158 
z"/>
<path fill="#50DC99" opacity="1.000000" stroke="none" 
	d="
M333.916931,34.444180 
	C318.270691,36.203522 303.617371,41.357922 289.368713,48.976387 
	C289.909363,47.949341 290.572021,46.379662 291.733124,45.787594 
	C304.412872,39.322041 317.677826,34.661072 331.973877,33.442753 
	C332.536926,33.394768 333.147980,33.910442 333.916931,34.444180 
z"/>
<path fill="#51DE9A" opacity="1.000000" stroke="none" 
	d="
M445.143738,690.820374 
	C457.404846,684.106995 469.855835,677.121887 480.639221,667.022583 
	C478.073792,669.968872 475.575378,673.564880 472.236145,676.014648 
	C463.993683,682.061279 455.923279,688.594849 445.143738,690.820374 
z"/>
<path fill="#50DC99" opacity="1.000000" stroke="none" 
	d="
M224.081726,611.272644 
	C234.959122,618.728882 245.894653,626.527954 256.957520,634.634766 
	C255.660873,634.641235 253.939987,634.752197 252.859619,633.973877 
	C243.763367,627.421753 234.770645,620.725220 225.795593,614.006836 
	C225.059448,613.455872 224.683273,612.423889 224.081726,611.272644 
z"/>
<path fill="#50DC99" opacity="1.000000" stroke="none" 
	d="
M225.096436,100.396286 
	C220.039459,106.608765 214.617249,112.870872 209.257980,119.186378 
	C206.783722,122.102104 204.432404,125.122139 201.743118,128.265701 
	C201.736053,127.353561 201.677673,125.973289 202.337433,125.233162 
	C209.746857,116.921204 217.266754,108.707726 225.096436,100.396286 
z"/>
<path fill="#51DE9A" opacity="1.000000" stroke="none" 
	d="
M492.650330,114.022301 
	C486.411011,106.842911 480.248749,99.286598 473.958221,91.411148 
	C477.681366,94.792503 481.844574,98.227684 485.288544,102.274879 
	C488.200653,105.697021 490.279663,109.828079 492.650330,114.022301 
z"/>
<path fill="#50DC99" opacity="1.000000" stroke="none" 
	d="
M257.098572,635.253113 
	C264.591827,640.078857 272.139038,645.250671 279.878998,650.688599 
	C277.136566,649.587646 273.928558,648.607117 271.324951,646.770020 
	C266.416901,643.307007 261.857117,639.350525 257.098572,635.253113 
z"/>
<path fill="#50DC99" opacity="1.000000" stroke="none" 
	d="
M208.369781,597.972229 
	C213.489899,601.882019 218.588043,606.149231 223.881348,610.686768 
	C217.410049,608.521179 211.793976,604.776794 208.369781,597.972229 
z"/>
<path fill="#50DC99" opacity="1.000000" stroke="none" 
	d="
M288.675659,49.007370 
	C283.954865,52.329643 278.847931,55.639198 273.397125,59.030960 
	C278.131989,55.740330 283.210754,52.367493 288.675659,49.007370 
z"/>
<path fill="#51DE9A" opacity="1.000000" stroke="none" 
	d="
M380.878723,21.536877 
	C380.259918,21.833611 379.551880,21.909567 378.492188,22.000282 
	C379.023529,21.782061 379.906525,21.549082 380.878723,21.536877 
z"/>
<path fill="#51DE9A" opacity="1.000000" stroke="none" 
	d="
M444.242432,691.853882 
	C443.782074,692.011108 443.493011,691.969116 442.769714,691.864624 
	C442.938110,691.456543 443.540649,691.110840 444.499725,690.736084 
	C444.708740,691.022888 444.561249,691.338806 444.242432,691.853882 
z"/>
<path fill="#50DC99" opacity="1.000000" stroke="none" 
	d="
M272.899170,59.131470 
	C272.850159,59.375664 272.577911,59.720280 272.140625,59.986900 
	C272.162476,59.635040 272.395905,59.409367 272.899170,59.131470 
z"/>
<path fill="#51DE9A" opacity="1.000000" stroke="none" 
	d="
M473.827209,90.944412 
	C473.633240,90.985367 473.306580,90.792992 472.932281,90.309372 
	C473.154602,90.249107 473.424530,90.480095 473.827209,90.944412 
z"/>
<path fill="#50DC99" opacity="1.000000" stroke="none" 
	d="
M362.793915,154.930099 
	C380.358429,153.959961 397.443024,152.853729 414.543243,152.103668 
	C419.481201,151.887100 424.507202,152.394638 429.416656,153.100189 
	C437.503815,154.262421 441.285278,160.181488 439.327942,168.219955 
	C434.218628,189.203094 433.292358,210.601379 432.931763,232.050903 
	C432.584625,252.700363 431.919922,273.357971 432.209656,294.000610 
	C432.466095,312.272766 434.283325,330.520966 434.626190,348.794434 
	C435.185150,378.586304 435.200928,408.389984 435.262756,438.189056 
	C435.309540,460.727539 431.674744,482.754456 425.033020,504.264130 
	C418.859375,524.257874 407.947296,540.385742 387.272156,547.676636 
	C373.533295,552.521545 360.386200,549.931152 348.053162,542.773499 
	C332.791260,533.915894 321.679688,520.988892 313.591736,505.577271 
	C302.408539,484.267609 291.744659,462.685181 280.894745,441.201202 
	C279.998688,439.426971 279.271484,437.548004 278.654083,435.656219 
	C277.081055,430.835907 278.906464,426.455261 283.033905,424.882782 
	C287.529755,423.169922 291.928009,425.094147 293.891235,430.042267 
	C298.052307,440.529907 301.654358,451.252014 306.127655,461.600433 
	C315.037567,482.212189 323.862732,503.041351 340.213593,519.157837 
	C350.288849,529.088684 361.902710,536.121887 377.182129,534.052917 
	C387.559601,532.647705 394.969086,526.900818 400.889496,518.963440 
	C410.061279,506.667023 413.757904,492.182434 416.929321,477.467529 
	C422.475372,451.734894 422.623932,425.658600 422.278534,399.553619 
	C422.009766,379.239868 421.378418,358.930908 420.914307,338.619690 
	C420.545563,322.482391 419.914246,306.345398 419.882416,290.207306 
	C419.826324,261.762939 419.963348,233.315277 420.380920,204.874313 
	C420.553436,193.127426 421.658844,181.394226 422.366302,169.201111 
	C420.911560,168.934525 419.145752,168.326996 417.381927,168.332611 
	C403.233856,168.377686 389.083282,168.405624 374.939514,168.715103 
	C366.796539,168.893280 358.657562,169.482620 350.529602,170.065857 
	C334.292633,171.231018 318.062439,172.492767 301.834320,173.776627 
	C298.029999,174.077591 294.143036,174.229202 290.480804,175.173599 
	C286.975403,176.077576 283.547302,177.632416 280.386963,179.431290 
	C276.702789,181.528320 272.961243,181.609451 270.191071,178.932770 
	C267.801697,176.623978 265.682556,173.198914 265.173767,169.992859 
	C264.542664,166.016098 267.728668,162.986923 271.492737,162.133408 
	C276.630188,160.968491 281.953857,160.473236 287.226715,160.088287 
	C298.829865,159.241165 310.456390,158.718781 322.063782,157.923752 
	C335.487885,157.004272 348.901672,155.934219 362.793915,154.930099 
M306.203094,172.010361 
	C323.241119,170.670303 340.279114,169.330215 357.317139,167.990204 
	C364.107086,167.456177 370.890472,166.591599 377.688324,166.457230 
	C391.836914,166.177521 405.993988,166.189819 420.145630,166.310394 
	C423.056519,166.335205 425.047272,167.889114 424.627655,171.521988 
	C423.677948,179.744049 422.689941,187.981110 422.264160,196.240265 
	C421.339691,214.174194 420.302521,232.122711 420.180786,250.071152 
	C420.085083,264.181580 421.417816,278.296692 421.892365,292.417206 
	C422.668884,315.524506 423.555634,338.634064 423.857758,361.749695 
	C424.201233,388.029877 423.965973,414.317810 423.940704,440.602325 
	C423.938660,442.754486 423.756195,444.928284 423.420715,447.054657 
	C421.660797,458.210480 419.857819,469.359833 418.006775,480.500946 
	C415.437195,495.967194 410.270508,510.310333 400.431702,522.825073 
	C389.218903,537.087524 366.727478,540.150757 351.451477,530.487427 
	C335.756165,520.558838 324.983276,506.462036 317.060669,490.645752 
	C307.593719,471.746246 300.568726,451.625214 292.438293,432.053070 
	C290.958710,428.491333 288.484344,426.124695 284.290314,427.250061 
	C280.988983,428.135895 279.453949,432.498596 281.143707,436.380432 
	C283.864044,442.629761 286.640198,448.866730 289.704468,454.951965 
	C297.303802,470.043182 304.985046,485.095123 312.834106,500.057556 
	C315.677155,505.477112 318.608276,510.972717 322.344147,515.776489 
	C330.370728,526.097412 339.293030,535.150879 351.187164,541.743042 
	C371.052124,552.752991 386.890259,548.502319 400.981232,538.144409 
	C410.399353,531.221375 417.265106,521.502991 420.898468,510.003082 
	C422.749878,504.143127 424.810150,498.324921 426.226624,492.357452 
	C428.397491,483.211731 431.196014,474.021698 431.771606,464.729279 
	C433.138611,442.660339 433.524780,420.523712 433.978058,398.407684 
	C434.254456,384.919556 434.340179,371.400970 433.763702,357.928040 
	C432.840424,336.350372 430.654266,314.813873 430.164093,293.233582 
	C429.420013,260.473297 430.264709,227.706711 433.722290,195.078033 
	C434.660980,186.219696 436.160065,177.413879 437.624817,168.621063 
	C438.348480,164.276901 435.691254,157.093918 432.327728,156.176208 
	C428.806946,155.215576 425.148529,154.002640 421.581146,154.094757 
	C401.803741,154.605545 382.016510,155.154556 362.270050,156.322968 
	C342.871460,157.470825 323.519501,159.398621 304.143250,160.936035 
	C294.702209,161.685135 285.232971,162.131165 275.813293,163.079727 
	C269.204071,163.745270 265.254517,169.727585 268.094086,174.079559 
	C271.279633,178.961792 275.690552,179.647034 280.550018,176.197769 
	C281.865082,175.264297 283.469086,174.408478 285.029510,174.207169 
	C291.757294,173.339233 298.518219,172.727783 306.203094,172.010361 
z"/>
<path fill="#33FC9B" opacity="1.000000" stroke="none" 
	d="
M305.735077,172.016663 
	C298.518219,172.727783 291.757294,173.339233 285.029510,174.207169 
	C283.469086,174.408478 281.865082,175.264297 280.550018,176.197769 
	C275.690552,179.647034 271.279633,178.961792 268.094086,174.079559 
	C265.254517,169.727585 269.204071,163.745270 275.813293,163.079727 
	C285.232971,162.131165 294.702209,161.685135 304.143250,160.936035 
	C323.519501,159.398621 342.871460,157.470825 362.270050,156.322968 
	C382.016510,155.154556 401.803741,154.605545 421.581146,154.094757 
	C425.148529,154.002640 428.806946,155.215576 432.327728,156.176208 
	C435.691254,157.093918 438.348480,164.276901 437.624817,168.621063 
	C436.160065,177.413879 434.660980,186.219696 433.722290,195.078033 
	C430.264709,227.706711 429.420013,260.473297 430.164093,293.233582 
	C430.654266,314.813873 432.840424,336.350372 433.763702,357.928040 
	C434.340179,371.400970 434.254456,384.919556 433.978058,398.407684 
	C433.524780,420.523712 433.138611,442.660339 431.771606,464.729279 
	C431.196014,474.021698 428.397491,483.211731 426.226624,492.357452 
	C424.810150,498.324921 422.749878,504.143127 420.898468,510.003082 
	C417.265106,521.502991 410.399353,531.221375 400.981232,538.144409 
	C386.890259,548.502319 371.052124,552.752991 351.187164,541.743042 
	C339.293030,535.150879 330.370728,526.097412 322.344147,515.776489 
	C318.608276,510.972717 315.677155,505.477112 312.834106,500.057556 
	C304.985046,485.095123 297.303802,470.043182 289.704468,454.951965 
	C286.640198,448.866730 283.864044,442.629761 281.143707,436.380432 
	C279.453949,432.498596 280.988983,428.135895 284.290314,427.250061 
	C288.484344,426.124695 290.958710,428.491333 292.438293,432.053070 
	C300.568726,451.625214 307.593719,471.746246 317.060669,490.645752 
	C324.983276,506.462036 335.756165,520.558838 351.451477,530.487427 
	C366.727478,540.150757 389.218903,537.087524 400.431702,522.825073 
	C410.270508,510.310333 415.437195,495.967194 418.006775,480.500946 
	C419.857819,469.359833 421.660797,458.210480 423.420715,447.054657 
	C423.756195,444.928284 423.938660,442.754486 423.940704,440.602325 
	C423.965973,414.317810 424.201233,388.029877 423.857758,361.749695 
	C423.555634,338.634064 422.668884,315.524506 421.892365,292.417206 
	C421.417816,278.296692 420.085083,264.181580 420.180786,250.071152 
	C420.302521,232.122711 421.339691,214.174194 422.264160,196.240265 
	C422.689941,187.981110 423.677948,179.744049 424.627655,171.521988 
	C425.047272,167.889114 423.056519,166.335205 420.145630,166.310394 
	C405.993988,166.189819 391.836914,166.177521 377.688324,166.457230 
	C370.890472,166.591599 364.107086,167.456177 357.317139,167.990204 
	C340.279114,169.330215 323.241119,170.670303 305.735077,172.016663 
z"/>
</svg>